<svg width="300" height="300" viewBox="0 0 300 300" fill="none" xmlns="http://www.w3.org/2000/svg">
<path d="M175.303 164C173.383 164 171.555 163.848 169.818 163.545C168.08 163.263 166.555 162.869 165.242 162.364L168.878 150.485C170.252 150.97 171.505 151.283 172.636 151.424C173.788 151.566 174.767 151.485 175.575 151.182C176.404 150.879 177 150.303 177.363 149.455L177.727 148.606L161.363 100H178.818L186.333 132.242H186.818L194.454 100H212.03L195.06 150.424C194.212 152.99 192.979 155.293 191.363 157.333C189.767 159.394 187.666 161.02 185.06 162.212C182.454 163.404 179.202 164 175.303 164Z" fill="black"/>
<path d="M114.364 129.182L124.545 150.818L135.273 129.182H160.182L141.455 164.091L161.091 199H136.364L124.545 176.818L113.091 199H88L107.818 164.091L89.2727 129.182H114.364Z" fill="black"/>
</svg>
