<svg width="300" height="300" viewBox="0 0 300 300" fill="none" xmlns="http://www.w3.org/2000/svg">
<path d="M134.8 108.6C134.8 117.216 141.784 124.2 150.4 124.2C159.015 124.2 166 117.216 166 108.6C166 99.9844 159.015 93 150.4 93C141.784 93 134.8 99.9844 134.8 108.6Z" fill="black"/>
<path d="M134.8 192.2C134.8 200.816 141.784 207.8 150.4 207.8C159.015 207.8 166 200.816 166 192.2C166 183.584 159.015 176.6 150.4 176.6C141.784 176.6 134.8 183.584 134.8 192.2Z" fill="black"/>
<path d="M212.8 140H88V160.8H212.8V140Z" fill="black"/>
</svg>
