<svg width="300" height="300" viewBox="0 0 300 300" fill="none" xmlns="http://www.w3.org/2000/svg">
<path d="M52.0002 156H83.2002L94.3282 190.16L122.512 82H247.312V102.8H138.632L108.784 217.2H83.2002L69.4722 176.8H52.0002V156Z" fill="black"/>
<path d="M65.9394 146C64.0202 146 62.1919 145.848 60.4545 145.545C58.7172 145.263 57.1919 144.869 55.8788 144.364L59.5152 132.485C60.8889 132.97 62.1414 133.283 63.2727 133.424C64.4242 133.566 65.404 133.485 66.2121 133.182C67.0404 132.879 67.6364 132.303 68 131.455L68.3636 130.606L52 82H69.4545L76.9697 114.242H77.4545L85.0909 82H102.667L85.697 132.424C84.8485 134.99 83.6162 137.293 82 139.333C80.404 141.394 78.303 143.02 75.697 144.212C73.0909 145.404 69.8384 146 65.9394 146Z" fill="black"/>
<path d="M180.364 130L190.545 151.636L201.273 130H226.182L207.455 164.909L227.091 199.818H202.364L190.545 177.636L179.091 199.818H154L173.818 164.909L155.273 130H180.364Z" fill="black"/>
</svg>
